<svg xmlns="http://www.w3.org/2000/svg" viewBox="0 0 30 30.54"><defs><style>.cls-1{fill:#636569;}</style></defs><title>Draft Icon</title><g id="Layer_2" data-name="Layer 2"><path class="cls-1" d="M28.66,6.3V3.09A3.06,3.06,0,0,0,25.43.25H22.68a3.06,3.06,0,0,0-3.23,2.84V6.3a3.23,3.23,0,0,0-1.37,2.64v4.33a.83.83,0,0,0,1.66,0V11.78h8.64v1.49a.83.83,0,1,0,1.66,0V8.94A3.24,3.24,0,0,0,28.66,6.3ZM21.11,3.09c0-.64.72-1.18,1.57-1.18h2.75c.85,0,1.57.54,1.57,1.18V5.72H21.11Zm-1.37,7V8.94a1.57,1.57,0,0,1,1.57-1.57H26.8a1.58,1.58,0,0,1,1.58,1.57v1.18Z"/><path class="cls-1" d="M10.55,22.49V19.28a3.06,3.06,0,0,0-3.23-2.84H4.57a3.06,3.06,0,0,0-3.23,2.84v3.21A3.24,3.24,0,0,0,0,25.13v4.33a.83.83,0,0,0,1.66,0V28h8.64v1.5a.83.83,0,1,0,1.66,0V25.13A3.23,3.23,0,0,0,10.55,22.49ZM3,19.28c0-.64.72-1.18,1.57-1.18H7.32c.85,0,1.57.54,1.57,1.18v2.63H3Zm-1.38,7V25.13A1.57,1.57,0,0,1,3.2,23.56H8.69a1.57,1.57,0,0,1,1.57,1.57V26.3Z"/><path class="cls-1" d="M5.3,5.57a.85.85,0,0,0,0,1.18L23.52,25a.83.83,0,0,0,1.18-1.18L6.48,5.57A.85.85,0,0,0,5.3,5.57Z"/></g></svg>