<svg xmlns="http://www.w3.org/2000/svg" viewBox="0 0 30 30.54"><defs><style>.cls-1{fill:#636569;}</style></defs><title>Draft Icon</title><g id="Layer_2" data-name="Layer 2"><path class="cls-1" d="M27.38,14.8V7.32a4.14,4.14,0,0,0-4.26-4H6.88a4.14,4.14,0,0,0-4.26,4V14.8A3.84,3.84,0,0,0,0,18.37v6.52H2.31v2.32H4.57V24.89H25.43v2.32h2.26V24.89H30V18.37A3.84,3.84,0,0,0,27.38,14.8ZM7,13.91a2,2,0,0,1,2-2h3.24a2,2,0,0,1,2,2v.59H7Zm18.75.59H24.68v-.59a3.64,3.64,0,0,0-3.63-3.63H17.81A3.6,3.6,0,0,0,15,11.62a3.6,3.6,0,0,0-2.81-1.34H9a3.64,3.64,0,0,0-3.63,3.63v.59H4.27V7.32A2.49,2.49,0,0,1,6.88,5H23.12a2.49,2.49,0,0,1,2.61,2.34Zm-9.89-.59a2,2,0,0,1,2-2h3.24a2,2,0,0,1,2,2v.59H15.84Zm12.51,4.46v4.87H1.65V18.37a2.27,2.27,0,0,1,1.71-2.08l.26-.06a2.81,2.81,0,0,1,.65-.07H25.73a2.81,2.81,0,0,1,.65.07l.25.06A2.27,2.27,0,0,1,28.35,18.37Z"/></g></svg>