<svg xmlns="http://www.w3.org/2000/svg" viewBox="0 0 30 30.54"><defs><style>.cls-1{fill:#636569;}</style></defs><title>Draft Icon</title><g id="Layer_2" data-name="Layer 2"><path class="cls-1" d="M29.7,25.69l-2.91-2.9a1,1,0,0,0-1.35,1.35l1.26,1.27H4.82V3.55L6.08,4.82a1,1,0,0,0,1.39,0,1,1,0,0,0,0-1.36L4.56.55a1,1,0,0,0-1.35,0L.3,3.46a1,1,0,0,0,0,1.36,1,1,0,0,0,1.36,0L2.92,3.55V26.39a1,1,0,0,0,1,1H26.67l-1.26,1.26A1,1,0,0,0,26.79,30l2.91-2.91A1,1,0,0,0,29.7,25.69Z"/><path class="cls-1" d="M8.44,8.62h.81A.81.81,0,0,0,9.25,7H8.44a.81.81,0,0,0,0,1.61Z"/><path class="cls-1" d="M14.53,8.62h1.3a.81.81,0,1,0,0-1.61h-1.3a.81.81,0,0,0,0,1.61Z"/><path class="cls-1" d="M23.22,14.41a.8.8,0,0,0-.8-.8.81.81,0,0,0-.81.8v1.3a.82.82,0,0,0,.81.81.81.81,0,0,0,.8-.81Z"/><path class="cls-1" d="M22.42,7h-1.3a.81.81,0,1,0,0,1.61h.49v.49a.81.81,0,1,0,1.61,0V7.81A.8.8,0,0,0,22.42,7Z"/><path class="cls-1" d="M22.42,20.2a.82.82,0,0,0-.81.81v.8a.81.81,0,0,0,.81.81.8.8,0,0,0,.8-.81V21A.79.79,0,0,0,22.42,20.2Z"/></g></svg>