<svg xmlns="http://www.w3.org/2000/svg" viewBox="0 0 30 30.54"><defs><style>.cls-1{fill:#636569;}</style></defs><title>Draft Icon</title><g id="Layer_2" data-name="Layer 2"><path class="cls-1" d="M12.05,22.86H3.71A3.72,3.72,0,0,0,0,26.56v2.78a.92.92,0,0,0,.93.93h11a1.74,1.74,0,0,1-.27-.93v-.92H1.85V26.56a1.83,1.83,0,0,1,1.86-1.85h8.35a4.55,4.55,0,0,1,1.23-1.64A3.63,3.63,0,0,0,12.05,22.86Z"/><path class="cls-1" d="M18,22.86a3.71,3.71,0,0,0-3.71,3.7v2.78a.93.93,0,0,0,.93.93h13.9a.93.93,0,0,0,.93-.93h0V26.56a3.71,3.71,0,0,0-3.71-3.7Zm0,1.85h8.34a1.84,1.84,0,0,1,1.86,1.85v1.86h-12V26.56A1.83,1.83,0,0,1,18,24.71Z"/><path class="cls-1" d="M7.88,11.05a5.1,5.1,0,1,0,5.1,5.1A5.11,5.11,0,0,0,7.88,11.05Zm0,1.86a3.25,3.25,0,1,1-3.25,3.24A3.23,3.23,0,0,1,7.88,12.91Z"/><path class="cls-1" d="M22.12,11.05a5.1,5.1,0,1,0,5.1,5.1A5.12,5.12,0,0,0,22.12,11.05Zm0,1.86a3.25,3.25,0,1,1-3.24,3.24A3.23,3.23,0,0,1,22.12,12.91Z"/><path class="cls-1" d="M7.88,11.05a5.1,5.1,0,1,0,5.1,5.1A5.11,5.11,0,0,0,7.88,11.05Zm0,1.86a3.25,3.25,0,1,1-3.25,3.24A3.23,3.23,0,0,1,7.88,12.91Z"/><path class="cls-1" d="M15,.27a5.1,5.1,0,1,0,5.1,5.1A5.11,5.11,0,0,0,15,.27Zm0,1.85a3.25,3.25,0,1,1-3.24,3.25A3.24,3.24,0,0,1,15,2.12Z"/></g></svg>