<svg xmlns="http://www.w3.org/2000/svg" viewBox="0 0 30 30.54"><defs><style>.cls-1{fill:#636569;}</style></defs><title>Draft Icon</title><g id="Layer_2" data-name="Layer 2"><path class="cls-1" d="M29,28.25H26.12V17.05H29a1,1,0,1,0,0-2H23V6.47A6.21,6.21,0,0,0,16.82.27H10.09a6.21,6.21,0,0,0-6.21,6.2V15H1.05a1,1,0,0,0,0,2H3.88v11.2H1.05a1,1,0,1,0,0,2H29a1,1,0,1,0,0-2ZM5.9,6.47a4.19,4.19,0,0,1,4.19-4.18h6.73A4.19,4.19,0,0,1,21,6.47V15H9.5l-.07.13h0l-.06.11A1.5,1.5,0,0,1,8,16.06a1.76,1.76,0,0,1-.75-.2,1.47,1.47,0,0,1-.7-.83H5.9Zm4.72,21.78H5.9V17.05h4.72Zm6.74,0H12.64V17.05h4.72Zm6.74,0H19.38V17.05H24.1Z"/><path class="cls-1" d="M8,15.27a.93.93,0,0,1-.4-.12.66.66,0,0,1-.33-.43.7.7,0,0,1,.07-.53c.07-.09.24-.38,1-1.66.41-.73.85-1.48,1.1-1.9.88-1.43,2.16-1.72,3.94-1.72a8.56,8.56,0,0,0,3.89-.61c.87-.36.89-2.25.83-2.88a.75.75,0,0,1,.67-.8h.05a.77.77,0,0,1,.76.68c0,.13.33,3.5-1.75,4.37a8.84,8.84,0,0,1-2.51.64l-.26,0v3.41H11.46V10.58l-.48.48a1.71,1.71,0,0,0-.11.14.3.3,0,0,1-.07.08l-.05,0,0,0S8.81,14.56,8.65,15l0-.09A.73.73,0,0,1,8,15.27Z"/><circle class="cls-1" cx="13.29" cy="5.78" r="1.98"/></g></svg>