<svg id="Layer_1" data-name="Layer 1" xmlns="http://www.w3.org/2000/svg" viewBox="0 0 237.1 111.12"><defs><style>.cls-1{fill:#636569;}</style></defs><title>Maya Logo</title><path class="cls-1" d="M61.07,7.63H51a13.46,13.46,0,0,0-11.17,5.93A13.49,13.49,0,0,0,28.69,7.63h-10a13.5,13.5,0,0,0-13.5,13.5V53.91a4.63,4.63,0,0,0,4.63-4.63V21.13a8.87,8.87,0,0,1,8.87-8.87h0a8.87,8.87,0,0,1,8.87,8.87V39.26A14.65,14.65,0,0,0,42.19,53.91V21.13c0-.07,0-.14,0-.21A8.86,8.86,0,0,1,51,12.26h0a8.87,8.87,0,0,1,8.87,8.87V39.26A14.66,14.66,0,0,0,74.57,53.91V21.13a13.49,13.49,0,0,0-13.5-13.5Z"/><path class="cls-1" d="M113.54,7.63h-10A13.49,13.49,0,0,0,90,21.13h.27a5.54,5.54,0,0,0,5.06-3.45,8.85,8.85,0,0,1,8.17-5.42h0a8.87,8.87,0,0,1,8.87,8.87v1.74h-8.87A13.49,13.49,0,0,0,90,36.37v4.28h0a13.49,13.49,0,0,0,13.49,13.26h5a4.63,4.63,0,0,0-4.62-4.63h-.39a8.87,8.87,0,0,1-8.87-8.87v-4a8.87,8.87,0,0,1,8.87-8.87h0a8.87,8.87,0,0,1,8.87,8.87v2.89A14.65,14.65,0,0,0,127,53.91h0V21.13a13.49,13.49,0,0,0-13.49-13.5Z"/><path class="cls-1" d="M218.44,7.63h-10a13.5,13.5,0,0,0-13.5,13.5h.27a5.53,5.53,0,0,0,5.06-3.45,8.86,8.86,0,0,1,8.17-5.42h0a8.87,8.87,0,0,1,8.87,8.87v1.74h-8.87a13.5,13.5,0,0,0-13.5,13.5v4.28h0a13.49,13.49,0,0,0,13.49,13.26h5a4.63,4.63,0,0,0-4.62-4.63h-.39a8.87,8.87,0,0,1-8.87-8.87v-4a8.87,8.87,0,0,1,8.87-8.87h0a8.87,8.87,0,0,1,8.87,8.87v2.89a14.65,14.65,0,0,0,14.66,14.65h0V21.13a13.5,13.5,0,0,0-13.5-13.5Z"/><path class="cls-1" d="M164.83,22.29V40.37A8.87,8.87,0,0,1,156,49.24h0a8.87,8.87,0,0,1-8.87-8.87V20.74A13.49,13.49,0,0,0,133.59,7.63V7.9A5.53,5.53,0,0,0,137,13a8.86,8.86,0,0,1,5.42,8.16V40.37A13.49,13.49,0,0,0,156,53.86h8.87V55.6A8.87,8.87,0,0,1,156,64.47h0a8.85,8.85,0,0,1-8.17-5.41,5.54,5.54,0,0,0-5.06-3.46h-.27A13.49,13.49,0,0,0,156,69.1h10a13.49,13.49,0,0,0,13.49-13.5v-48a14.65,14.65,0,0,0-14.65,14.66Z"/><path class="cls-1" d="M21.83,102.89H18.64l-.82-3a6.12,6.12,0,0,1-2.52,2.7,7.11,7.11,0,0,1-3.64.94,5.69,5.69,0,0,1-4.84-2.14,9,9,0,0,1-1.66-5.67V85.43H9.82v9.69c0,3.64,1.09,5.48,3.27,5.48A3.35,3.35,0,0,0,16,98.87a8.18,8.18,0,0,0,1.08-4.43v-9h4.77v17.46Z"/><path class="cls-1" d="M50.07,93.73a11.17,11.17,0,0,1-1,5,8.48,8.48,0,0,1-3,3.5,7.9,7.9,0,0,1-4.46,1.31,6.17,6.17,0,0,1-3.27-.83,5.26,5.26,0,0,1-2.22-2.21l-.71,2.44H32.2V77.81h4.65v9.42a6.39,6.39,0,0,1,2.52-1.76,8.61,8.61,0,0,1,3-.57,7,7,0,0,1,5.67,2.44,9.88,9.88,0,0,1,2,6.39Zm-4.84,0a8.85,8.85,0,0,0-1-4.4A3.44,3.44,0,0,0,41,87.68a5,5,0,0,0-4.17,2.37v5.1a6.3,6.3,0,0,0,1,3.95,3.36,3.36,0,0,0,2.86,1.35,3.74,3.74,0,0,0,3.34-1.88,9.12,9.12,0,0,0,1.13-4.8Z"/><path class="cls-1" d="M75.68,102.89H72.49l-.83-3a6.06,6.06,0,0,1-2.52,2.7,7.06,7.06,0,0,1-3.64.94,5.7,5.7,0,0,1-4.84-2.14A9,9,0,0,1,59,95.68V85.43h4.65v9.69c0,3.64,1.09,5.48,3.27,5.48a3.35,3.35,0,0,0,2.89-1.73,8.18,8.18,0,0,0,1.09-4.43v-9h4.77v17.46Z"/><path class="cls-1" d="M102.64,102.89H99.48L98.66,100a5.59,5.59,0,0,1-2.44,2.67,7.83,7.83,0,0,1-3.65.86,7,7,0,0,1-5.7-2.52,10,10,0,0,1-2.1-6.68,10.85,10.85,0,0,1,1.08-4.81A8.24,8.24,0,0,1,89,86.11a8.45,8.45,0,0,1,4.62-1.24,7.91,7.91,0,0,1,2.48.41A5,5,0,0,1,98,86.48V77.81h4.66v25.08ZM98,94.7V89.45a4.27,4.27,0,0,0-3.64-1.88,3.92,3.92,0,0,0-3.53,1.84,8.62,8.62,0,0,0-1.2,4.69,8.78,8.78,0,0,0,1,4.62,3.39,3.39,0,0,0,3.12,1.8,3.64,3.64,0,0,0,3-1.57A6.79,6.79,0,0,0,98,94.7Z"/></svg>