<svg xmlns="http://www.w3.org/2000/svg" viewBox="0 0 136.36 33.99"><defs><style>.cls-1{fill:#fff;}</style></defs><title>Asset 40</title><g id="Layer_2" data-name="Layer 2"><g id="Layer_1-2" data-name="Layer 1"><path class="cls-1" d="M75.78,0H72.22a4.77,4.77,0,0,0-4,2.1,4.78,4.78,0,0,0-4-2.1H60.74A4.79,4.79,0,0,0,56,4.79V16.41a1.65,1.65,0,0,0,1.65-1.64v-10a3.15,3.15,0,1,1,6.29,0v6.42a5.19,5.19,0,0,0,5.19,5.2V4.71a3.14,3.14,0,0,1,3.14-3.07h0a3.15,3.15,0,0,1,3.15,3.15v6.42a5.19,5.19,0,0,0,5.19,5.2V4.79A4.78,4.78,0,0,0,75.78,0"/><path class="cls-1" d="M94.38,0H90.82A4.78,4.78,0,0,0,86,4.79h.09a2,2,0,0,0,1.8-1.23,3.14,3.14,0,0,1,6,1.23V5.4H90.82A4.79,4.79,0,0,0,86,10.19v1.52h0a4.78,4.78,0,0,0,4.78,4.7H92.6A1.63,1.63,0,0,0,91,14.77h-.14a3.15,3.15,0,0,1-3.14-3.15V10.19a3.15,3.15,0,1,1,6.29,0v1a5.19,5.19,0,0,0,5.19,5.2V4.79A4.78,4.78,0,0,0,94.38,0"/><path class="cls-1" d="M131.57,0H128a4.78,4.78,0,0,0-4.79,4.79h.1a2,2,0,0,0,1.79-1.23A3.14,3.14,0,0,1,128,1.64h0a3.15,3.15,0,0,1,3.14,3.15V5.4H128a4.79,4.79,0,0,0-4.79,4.79v1.52h0a4.79,4.79,0,0,0,4.79,4.7h1.77a1.63,1.63,0,0,0-1.64-1.64H128a3.15,3.15,0,0,1-3.15-3.15V10.19A3.15,3.15,0,0,1,128,7h0a3.15,3.15,0,0,1,3.14,3.15v1a5.2,5.2,0,0,0,5.2,5.2V4.79A4.79,4.79,0,0,0,131.57,0"/><path class="cls-1" d="M112.56,5.2v6.41a3.15,3.15,0,0,1-6.29,0v-7A4.78,4.78,0,0,0,101.49,0V.1a2,2,0,0,0,1.22,1.79,3.14,3.14,0,0,1,1.92,2.89v6.83a4.79,4.79,0,0,0,4.79,4.78h3.14V17a3.14,3.14,0,0,1-6,1.22A2,2,0,0,0,104.73,17h-.1a4.8,4.8,0,0,0,4.79,4.79H113A4.79,4.79,0,0,0,117.76,17V0a5.2,5.2,0,0,0-5.2,5.2"/><path class="cls-1" d="M39.74,1.52C38.06,1.58,36.61.4,34.89.59S31.75,2,30.5,3.09c-2.37,2-5.48,5.66-9,4.58-3.91-1.21-5.72-6.13-10-6.53A15.14,15.14,0,0,0,0,4.92a14.48,14.48,0,0,1,8.15.9c4.28,1.65,6.67,6.18,10.2,8.88a7.51,7.51,0,0,0,10.57-1c1.25-1.59,1.69-3.73,3.14-5.18S35.91,7.31,37.94,7C41.35,6.36,44.06,3.2,45.12,0a13.91,13.91,0,0,1-5.38,1.52"/><path class="cls-1" d="M59.78,28.61a1.8,1.8,0,0,0-.44-.05c-1.11,0-1.67.63-1.67,1.89v3.32H55.94V27.36h1.13l.37,1.24a2.39,2.39,0,0,1,.76-1,1.85,1.85,0,0,1,1.11-.34,1.28,1.28,0,0,1,.47.07Z"/><path class="cls-1" d="M63.93,30.76a2.58,2.58,0,0,0,.58,1.64A1.81,1.81,0,0,0,66,33a2.55,2.55,0,0,0,1.6-.51l.45.72a3,3,0,0,1-1.07.58,4,4,0,0,1-1.24.18,3.48,3.48,0,0,1-2.62-.93,3.35,3.35,0,0,1-.9-2.42,3.7,3.7,0,0,1,.43-1.79,3.16,3.16,0,0,1,1.19-1.24,3,3,0,0,1,1.67-.46,2.76,2.76,0,0,1,2.09.8A2.88,2.88,0,0,1,68.31,30a2.56,2.56,0,0,1-.08.75Zm0-.8h2.63a2.75,2.75,0,0,0-.27-1.57,1,1,0,0,0-.9-.48,1.14,1.14,0,0,0-1,.59A2.93,2.93,0,0,0,63.93,30"/><path class="cls-1" d="M71.5,32.35a3.06,3.06,0,0,0,1.87.67c.79,0,1.19-.25,1.19-.74a.75.75,0,0,0-.22-.55,2.39,2.39,0,0,0-.75-.43l-.92-.36a2.71,2.71,0,0,1-1.09-.74,1.62,1.62,0,0,1-.37-1.09A1.68,1.68,0,0,1,72,27.66a3.22,3.22,0,0,1,1.85-.51,3.69,3.69,0,0,1,2.08.54l-.37.84a3,3,0,0,0-1.67-.5,1.54,1.54,0,0,0-.83.2.63.63,0,0,0-.31.53.58.58,0,0,0,.22.5,2.73,2.73,0,0,0,.71.4l.93.4a2.87,2.87,0,0,1,1.13.79A1.79,1.79,0,0,1,76,32a1.77,1.77,0,0,1-.69,1.47,2.93,2.93,0,0,1-1.87.54A4,4,0,0,1,71,33.17Z"/><path class="cls-1" d="M78.79,30.58a3.59,3.59,0,0,1,.44-1.76,3.17,3.17,0,0,1,2.86-1.67,3.27,3.27,0,0,1,2.46.91,3.54,3.54,0,0,1,.85,2.48A3.62,3.62,0,0,1,85,32.31a3.45,3.45,0,0,1-5.32.75,3.46,3.46,0,0,1-.86-2.48m4.82,0a4.27,4.27,0,0,0-.35-1.83A1.16,1.16,0,0,0,82.12,28a1.21,1.21,0,0,0-1.14.8,4.06,4.06,0,0,0-.4,1.83,4.28,4.28,0,0,0,.36,1.84,1.17,1.17,0,0,0,1.15.75,1.21,1.21,0,0,0,1.13-.8,4.1,4.1,0,0,0,.39-1.83"/><path class="cls-1" d="M92.62,28.61a1.85,1.85,0,0,0-.44-.05c-1.12,0-1.67.63-1.67,1.89v3.32H88.78V27.36h1.13l.37,1.24a2.39,2.39,0,0,1,.76-1,1.83,1.83,0,0,1,1.11-.34,1.33,1.33,0,0,1,.47.07Z"/><path class="cls-1" d="M98.86,33.84A2.75,2.75,0,0,1,98,34a1.65,1.65,0,0,1-1.49-.66,3.5,3.5,0,0,1-.44-1.91V28.19H94.91v-.83h1.14V25.6h1.7v1.76H99.4v.83H97.75v3.07a4,4,0,0,0,.15,1.28.56.56,0,0,0,.58.41,1.28,1.28,0,0,0,.81-.3l.4.69a2.82,2.82,0,0,1-.83.5"/><path class="cls-1" d="M102.76,32.35a3.11,3.11,0,0,0,1.88.67c.78,0,1.18-.25,1.18-.74a.75.75,0,0,0-.22-.55,2.32,2.32,0,0,0-.74-.43l-.92-.36a2.64,2.64,0,0,1-1.09-.74,1.63,1.63,0,0,1-.38-1.09,1.67,1.67,0,0,1,.75-1.45,3.17,3.17,0,0,1,1.84-.51,3.73,3.73,0,0,1,2.09.54l-.38.84a3,3,0,0,0-1.66-.5,1.54,1.54,0,0,0-.83.2.62.62,0,0,0-.32.53.61.61,0,0,0,.22.5,2.83,2.83,0,0,0,.72.4l.92.4a2.87,2.87,0,0,1,1.13.79,1.74,1.74,0,0,1,.36,1.13,1.77,1.77,0,0,1-.69,1.47,3,3,0,0,1-1.87.54,4.07,4.07,0,0,1-2.46-.82Z"/></g></g></svg>