<svg xmlns="http://www.w3.org/2000/svg" viewBox="0 0 396.9 98.82"><defs><style>.cls-1{fill:#636569;}</style></defs><title>Asset 2</title><g id="Layer_2" data-name="Layer 2"><g id="Layer_1-2" data-name="Layer 1"><path class="cls-1" d="M220.6,0H210.3a14,14,0,0,0-11.6,6.1A13.78,13.78,0,0,0,187.2,0H176.9a14,14,0,0,0-14,13.9V47.7a4.7,4.7,0,0,0,4.8-4.6V13.9a9.2,9.2,0,0,1,9.2-9.2h0a9.2,9.2,0,0,1,9.1,9.2V32.6a15.19,15.19,0,0,0,15.1,15.1v-34a9.15,9.15,0,0,1,18.3.2V32.6a15.19,15.19,0,0,0,15.1,15.1V13.9A13.9,13.9,0,0,0,220.6,0Z"/><path class="cls-1" d="M274.7,0H264.4a13.9,13.9,0,0,0-13.9,13.9h.2a5.89,5.89,0,0,0,5.3-3.6,9,9,0,0,1,8.4-5.6,9.2,9.2,0,0,1,9.1,9.2v1.8h-9.1a13.9,13.9,0,0,0-13.9,13.9V34a13.9,13.9,0,0,0,13.9,13.7h5.2a4.89,4.89,0,0,0-4.8-4.8h-.4a9.2,9.2,0,0,1-9.2-9.1V29.6a9.09,9.09,0,0,1,9.1-9.1h.1a9.09,9.09,0,0,1,9.1,9.1h0v3a15.19,15.19,0,0,0,15.1,15.1V13.9A13.9,13.9,0,0,0,274.7,0Z"/><path class="cls-1" d="M382.9,0H372.6a13.9,13.9,0,0,0-13.9,13.9h.2a5.89,5.89,0,0,0,5.3-3.6,9,9,0,0,1,8.4-5.6,9.2,9.2,0,0,1,9.1,9.2v1.8h-9.1a13.9,13.9,0,0,0-13.9,13.9h0V34a13.9,13.9,0,0,0,13.9,13.7h5.2a4.89,4.89,0,0,0-4.8-4.8h-.4a9.2,9.2,0,0,1-9.2-9.1V29.6a9.09,9.09,0,0,1,9.1-9.1h.1a9.09,9.09,0,0,1,9.1,9.1v3a15.2,15.2,0,0,0,15.2,15.1V13.9A14,14,0,0,0,382.9,0Z"/><path class="cls-1" d="M327.6,15.1V33.7a9.15,9.15,0,1,1-18.3,0h0V13.5A13.91,13.91,0,0,0,295.4,0V.2A5.89,5.89,0,0,0,299,5.5a9,9,0,0,1,5.6,8.4V33.7a13.9,13.9,0,0,0,13.9,13.9h9.1v1.8a9.2,9.2,0,0,1-9.1,9.2,9,9,0,0,1-8.4-5.6,5.89,5.89,0,0,0-5.3-3.6h-.2a14,14,0,0,0,13.9,14h10.3a14,14,0,0,0,13.9-14V0a15.1,15.1,0,0,0-15.1,15.1Z"/><path class="cls-1" d="M115.6,4.4c-4.9.2-9.1-3.3-14.1-2.7S92.4,5.9,88.7,9c-6.9,5.8-15.9,16.4-26,13.3S46,4.4,33.7,3.3,8.7,6.1,0,14.3c7.6-1.8,16.4-.2,23.7,2.6,12.5,4.8,19.4,18,29.7,25.8s23,6.9,30.7-2.9c3.7-4.6,5-10.8,9.2-15s11.2-3.6,17.1-4.6c9.9-1.7,17.8-10.9,20.9-20.2a42.81,42.81,0,0,1-15.7,4.4"/><path class="cls-1" d="M180.1,98.2h-3.3l-.8-3.1a7,7,0,0,1-2.6,2.8,8,8,0,0,1-3.8.9,5.89,5.89,0,0,1-5-2.2,9.31,9.31,0,0,1-1.7-5.8V80.2h4.8v10c0,3.8,1.2,5.7,3.4,5.7a3.51,3.51,0,0,0,3-1.8,9,9,0,0,0,1.1-4.6V80.2h4.9Z"/><path class="cls-1" d="M209.3,88.8a11.83,11.83,0,0,1-1.1,5.1,10,10,0,0,1-3.1,3.6,8.23,8.23,0,0,1-4.6,1.3,6.31,6.31,0,0,1-3.4-.8,5.78,5.78,0,0,1-2.3-2.3l-.7,2.5h-3.3V72.3h4.8v9.8a8.27,8.27,0,0,1,2.6-1.9,12,12,0,0,1,3.2-.5,7,7,0,0,1,5.8,2.5A9.91,9.91,0,0,1,209.3,88.8Zm-5,0a9.36,9.36,0,0,0-1-4.5,3.58,3.58,0,0,0-3.4-1.8,5.65,5.65,0,0,0-2.4.7,4.7,4.7,0,0,0-1.9,1.8v5.2a6.69,6.69,0,0,0,1.1,4.1,3.58,3.58,0,0,0,3,1.4,3.9,3.9,0,0,0,3.4-1.9,9.29,9.29,0,0,0,1.2-5Z"/><path class="cls-1" d="M235.7,98.2h-3.3l-.9-3.1a6.4,6.4,0,0,1-2.6,2.8,7.81,7.81,0,0,1-3.7.9,5.8,5.8,0,0,1-5-2.2,9.31,9.31,0,0,1-1.7-5.8V80.2h4.8v10c0,3.8,1.1,5.7,3.4,5.7a3.29,3.29,0,0,0,2.9-1.8,8.1,8.1,0,0,0,1.2-4.6V80.2h4.9v18Z"/><path class="cls-1" d="M263.5,98.2h-3.3l-.8-3a5.52,5.52,0,0,1-2.5,2.7,8.24,8.24,0,0,1-3.8.9,7.1,7.1,0,0,1-5.9-2.6,10.36,10.36,0,0,1-2.2-6.9,10.21,10.21,0,0,1,1.2-4.9,8.32,8.32,0,0,1,3.2-3.5,8.94,8.94,0,0,1,4.8-1.3,7.37,7.37,0,0,1,2.5.5,5.06,5.06,0,0,1,2,1.2v-9h4.8V98.2Zm-4.8-8.4V84.4a4.39,4.39,0,0,0-3.8-2,3.91,3.91,0,0,0-3.6,1.9,9.1,9.1,0,0,0-1.3,4.9,9.36,9.36,0,0,0,1.1,4.7,3.5,3.5,0,0,0,3.2,1.9,3.9,3.9,0,0,0,3.2-1.7,6.85,6.85,0,0,0,1.2-4.3Z"/></g></g></svg>